<svg width="182" height="23" viewBox="0 0 182 23" fill="none" xmlns="http://www.w3.org/2000/svg">
<g clip-path="url(#clip0_276_106)">
<path d="M90.3265 3.03242C91.5368 3.01003 92.744 3.16284 93.9106 3.48609C94.8024 3.72845 95.6418 4.13319 96.3866 4.67997C97.0019 5.14464 97.4933 5.75352 97.8173 6.45287C98.1262 7.12103 98.2872 7.84793 98.2892 8.58394C98.2856 9.17833 98.1847 9.76812 97.9905 10.33C97.7866 10.9217 97.4758 11.471 97.0736 11.9507C96.6195 12.4875 96.0733 12.9393 95.4607 13.2848C94.7064 13.7046 93.8896 14.0008 93.0414 14.1623L98.797 21.5823H93.9942L88.3462 14.419H81.8918C81.4766 14.419 81.2705 14.5742 81.2705 14.8876V21.5912H76.9427V14.2459C76.9427 13.2013 77.2414 12.4551 77.8596 11.9925C78.4779 11.5298 79.4605 11.306 80.8285 11.306H90.4728C91.0069 11.3169 91.5393 11.2423 92.0498 11.0851C92.4395 10.9668 92.8012 10.7708 93.1131 10.5091C93.371 10.281 93.575 9.99867 93.7105 9.6823C93.8431 9.37926 93.9112 9.05198 93.9106 8.72123C93.9091 8.39199 93.8344 8.06721 93.6918 7.77039C93.5492 7.47357 93.3424 7.21214 93.0862 7.00504C92.5367 6.51754 91.6625 6.27479 90.4638 6.27677H76.9068V3.03242H90.3265Z" fill="#191919"/>
<path d="M123.841 3.03246V6.27681H111.449C110.129 6.27681 109.175 6.48673 108.588 6.90658C108.307 7.09257 108.078 7.3462 107.921 7.64406C107.765 7.94193 107.686 8.27442 107.692 8.61084C107.692 10.0793 108.951 10.8125 111.47 10.8106H123.644V13.7505H111.374C108.856 13.7505 107.597 14.5016 107.599 16.0039C107.589 16.3451 107.668 16.6831 107.828 16.9846C107.988 17.2861 108.224 17.5406 108.513 17.7231C109.124 18.135 110.066 18.3409 111.339 18.3409H123.883V21.5823H111.339C110.074 21.604 108.812 21.4747 107.578 21.1973C106.668 20.9959 105.8 20.6384 105.013 20.1407C104.388 19.7456 103.882 19.19 103.546 18.5319C103.239 17.9082 103.083 17.2213 103.089 16.5262C103.056 15.5594 103.381 14.6144 104.003 13.8728C104.721 13.104 105.638 12.5483 106.652 12.2671C104.331 11.5527 103.17 10.1599 103.17 8.08852C103.163 7.38246 103.327 6.68525 103.648 6.05595C103.997 5.3992 104.512 4.84476 105.141 4.4472C105.928 3.95083 106.796 3.59813 107.707 3.40554C108.942 3.13705 110.203 3.01186 111.467 3.03246H123.841Z" fill="#191919"/>
<path d="M132.864 21.5822H128.085L136.774 5.09483C137.188 4.26371 137.883 3.60599 138.736 3.23836C139.772 2.84718 140.876 2.66558 141.983 2.7041C143.077 2.66772 144.168 2.84934 145.191 3.23836C146.038 3.60029 146.723 4.26106 147.114 5.09483L155.477 21.5822H150.683L143.166 6.65881C143.05 6.4483 142.875 6.2762 142.663 6.16376C142.451 6.05132 142.21 6.00345 141.971 6.02605C141.721 6.00016 141.468 6.04624 141.244 6.15887C141.019 6.27149 140.831 6.44598 140.702 6.66179L132.864 21.5822Z" fill="#191919"/>
<path d="M170.868 3.03247C174.512 3.03247 177.281 3.79357 179.174 5.31576C181.068 6.83795 182.015 9.17297 182.015 12.3208C182.015 15.4547 181.068 17.7818 179.174 19.302C177.281 20.8222 174.512 21.5823 170.868 21.5823H162.126C160.755 21.5823 160.071 21.0809 160.071 20.072V4.55168C160.071 3.54285 160.756 3.03844 162.126 3.03844L170.868 3.03247ZM164.414 18.0126C164.414 18.2305 164.572 18.3409 164.892 18.3409H170.865C173.255 18.3409 174.99 17.8644 176.071 16.9113C177.152 15.9582 177.691 14.4191 177.687 12.294C177.687 10.1689 177.154 8.63473 176.089 7.69157C175.024 6.74841 173.284 6.27683 170.868 6.27683H164.895C164.575 6.27683 164.417 6.38726 164.417 6.60514L164.414 18.0126Z" fill="#191919"/>
<path d="M70.085 3.03247H65.7571V6.81407H70.085V3.03247Z" fill="#191919"/>
<path d="M70.085 11.3627H65.7571V21.5853H70.085V11.3627Z" fill="#191919"/>
<path d="M8.59897 5.19336C7.62527 11.8373 5.81229 17.0575 1.99816 20.654C1.39617 19.9644 0.726801 19.3365 0 18.7797C3.52441 15.7591 5.18208 11.0642 6.02137 5.19336H0.737737V2.94589H6.31109C6.41563 1.99676 6.49627 1.02375 6.57393 0L9.17841 0.176097C9.09776 1.12523 8.99323 2.0475 8.87973 2.94589H23.1596V5.19336H8.59897ZM16.5408 6.29471C16.5018 8.42691 16.3172 10.554 15.9883 12.661C17.4817 16.3322 20.2504 19.4542 23.7719 21.0182C23.1549 21.55 22.6231 22.173 22.1948 22.8657C19.2499 21.3913 16.8843 18.9199 15.1729 15.8487C14.017 18.9647 11.8068 21.4271 7.49087 23C7.1157 22.2934 6.61701 21.6596 6.01838 21.1286C13.4854 18.5558 13.802 13.2102 14.0409 6.29471H16.5408ZM8.17783 14.2101C8.94245 12.861 9.59954 10.7389 9.94004 9.09136L11.9382 9.7659C11.5708 11.4373 11.0183 13.646 10.2566 14.9831L8.17783 14.2101ZM17.646 13.4848C18.6188 12.0248 19.4385 10.4685 20.0921 8.84064L22.1829 9.78978C21.3853 11.385 20.4875 12.9282 19.4948 14.4101L17.646 13.4848Z" fill="#191919"/>
<path d="M31.4121 22.7016L29.1242 21.8658C29.7047 21.3704 30.2258 20.8095 30.6773 20.1944C31.1411 19.5942 31.5632 18.9629 31.9407 18.3051L34.2794 18.7439C33.8859 19.5092 33.4241 20.2374 32.8995 20.9197C32.1886 21.9027 31.6928 22.4966 31.4121 22.7016ZM29.5991 5.98731L29.4677 4.16367C29.835 4.16367 30.2651 4.16367 30.755 4.13979C31.6244 3.0277 32.3742 1.8272 32.9921 0.558167L35.268 0.928267C34.9375 1.67643 34.2405 2.72505 33.1773 4.07413L37.753 3.82341C37.3677 3.29214 37.0153 2.84145 36.7017 2.47434L38.6192 1.57893C39.1468 2.16968 39.6225 2.80479 40.0409 3.47719C40.7607 4.57555 41.1998 5.23517 41.3551 5.45007L39.33 6.19923C39.1359 5.90076 38.9537 5.61721 38.7775 5.35157C36.2546 5.58239 33.1932 5.79729 29.5931 5.99627L29.5991 5.98731ZM37.6992 13.6878H32.6755V17.1739H30.3876V6.98121H39.9603V15.5353C39.957 15.7482 39.9056 15.9576 39.8099 16.1478C39.7142 16.338 39.5767 16.5041 39.4077 16.6337C38.9619 16.9918 38.4023 17.1782 37.8307 17.159H35.9012L35.719 15.2846H37.0422C37.4782 15.2846 37.6992 15.1354 37.6992 14.8369V13.6878ZM37.6992 9.71817V8.45266H32.6755V9.72713L37.6992 9.71817ZM32.6755 12.3148H37.6992V11.0493H32.6755V12.3148ZM37.3319 22.5464C36.9117 21.3525 36.4468 20.0701 35.937 18.6991L38.198 18.3051C38.5326 18.9205 38.823 19.5589 39.0672 20.2153C39.3529 20.8452 39.5993 21.4921 39.8049 22.1524L37.3319 22.5464ZM43.4339 22.3494C42.8903 21.1555 42.2929 19.88 41.6418 18.523L43.8789 18.0634C43.9645 18.2086 44.306 18.8384 44.9034 19.9527C45.5007 21.066 45.8323 21.6957 45.904 21.842L43.4339 22.3494ZM49.9033 16.8068C47.9332 16.9465 45.9554 16.9385 43.9864 16.7829C43.4071 16.7317 42.861 16.4903 42.4333 16.0964C42.2475 15.9223 42.1002 15.7113 42.0009 15.4769C41.9017 15.2425 41.8526 14.9899 41.8569 14.7354V9.59281H44.2732V10.8643C47.3615 10.3151 49.5976 9.75797 50.9815 9.19287L51.9283 11.0404C50.5345 11.5239 47.9828 12.0562 44.2732 12.6372V14.1295C44.2732 14.5146 44.548 14.7533 45.0886 14.8548C47.1773 15.0538 48.7036 15.0458 49.6673 14.8309C49.8428 14.8155 50.0094 14.7474 50.1453 14.6355C50.2813 14.5236 50.3802 14.3733 50.4289 14.2042C50.4827 14.04 50.5424 14.0669 50.6141 12.8849L52.5884 13.1088V14.8309C52.5853 15.089 52.5189 15.3423 52.395 15.5687C52.271 15.7951 52.0933 15.9876 51.8775 16.1293C51.3075 16.5577 50.6164 16.7949 49.9033 16.8068V16.8068ZM49.6046 8.24374C47.7204 8.33097 45.8329 8.31403 43.9506 8.193C42.6006 8.0756 41.9256 7.4518 41.9256 6.3216V0.826788H44.2642V2.79967C47.0897 2.28232 49.2213 1.7411 50.6589 1.176L51.6296 2.82653C50.0168 3.3578 47.5616 3.9229 44.2642 4.52183V5.6978C44.2642 6.07984 44.53 6.29473 45.0557 6.37234C46.4262 6.53712 47.8111 6.54513 49.1835 6.39621C49.73 6.34547 50.0436 6.13356 50.1303 5.75749C50.2495 5.42711 50.2944 5.07449 50.2617 4.72479L52.2091 4.94864V6.37234C52.2056 6.62523 52.1417 6.87364 52.0227 7.09688C51.9038 7.32012 51.7331 7.51172 51.5251 7.65575C50.9628 8.04875 50.2907 8.25451 49.6046 8.24374V8.24374ZM48.0754 18.7468L50.3244 18.2156C50.3244 18.2156 50.6858 18.7021 51.4504 19.7796C51.9821 20.5287 52.7766 21.7196 52.9438 22.027L50.2557 22.4598C50.2557 22.4598 49.8405 21.636 49.2253 20.5586C48.7414 19.684 48.0843 18.7468 48.0843 18.7468H48.0754Z" fill="#191919"/>
</g>
<defs>
<clipPath id="clip0_276_106">
<rect width="182" height="23" fill="white"/>
</clipPath>
</defs>
</svg>
